<svg width="58" height="58" viewBox="0 0 58 58" fill="none" xmlns="http://www.w3.org/2000/svg">
<path d="M8.80359 35.0678H3C1.89543 35.0678 1 35.9632 1 37.0678V52.675C1 53.7796 1.89543 54.675 3 54.675H8.80359C9.90815 54.675 10.8036 53.7796 10.8036 52.675V37.0678C10.8036 35.9632 9.90816 35.0678 8.80359 35.0678Z" fill="white" stroke="url(#paint0_linear)" stroke-width="1.5" stroke-miterlimit="10" stroke-linecap="round" stroke-linejoin="round"/>
<path d="M10.8037 50.9988C36.2736 59.5681 27.9903 59.8147 54.8856 46.1252C56.1021 45.506 56.3912 43.8362 55.2412 43.1006C53.5158 41.9969 51.9571 41.8918 50.0181 42.4206L39.2341 46.097" fill="white"/>
<path d="M10.8037 50.9988C36.2736 59.5681 27.9903 59.8147 54.8856 46.1252C56.1021 45.506 56.3912 43.8362 55.2412 43.1006C53.5158 41.9969 51.9571 41.8918 50.0181 42.4206L39.2341 46.097" stroke="url(#paint1_linear)" stroke-width="1.5" stroke-miterlimit="10" stroke-linecap="round" stroke-linejoin="round"/>
<path d="M10.8037 37.5187H18.1564C23.2906 37.5187 26.931 40.3196 28.5887 41.8468C28.9788 42.2062 29.4821 42.4205 30.0126 42.4205C31.3032 42.4205 33.9207 42.4205 36.5381 42.4205C40.4596 42.4205 40.4596 47.3223 36.5381 47.3223H23.0582" fill="white"/>
<path d="M10.8037 37.5187H18.1564C23.2906 37.5187 26.931 40.3196 28.5887 41.8468C28.9788 42.2062 29.4821 42.4205 30.0126 42.4205C31.3032 42.4205 33.9207 42.4205 36.5381 42.4205C40.4596 42.4205 40.4596 47.3223 36.5381 47.3223H23.0582" stroke="url(#paint2_linear)" stroke-width="1.5" stroke-miterlimit="10" stroke-linecap="round" stroke-linejoin="round"/>
<path d="M16.6858 29.4306C15.4603 26.7346 14.48 23.7933 14.48 20.6072C14.48 9.82323 23.3032 1 34.0872 1C44.8711 1 53.6943 9.82323 53.6943 20.6072C53.6943 27.7148 49.7729 34.0875 44.1358 37.5187" fill="white"/>
<path d="M16.6858 29.4306C15.4603 26.7347 14.48 23.7933 14.48 20.6072C14.48 9.82323 23.3032 1 34.0872 1C44.8711 1 53.6943 9.82323 53.6943 20.6072C53.6943 27.7148 49.7729 34.0875 44.1358 37.5187" stroke="url(#paint3_linear)" stroke-width="1.5" stroke-miterlimit="10" stroke-linecap="round" stroke-linejoin="round"/>
<path d="M48.5467 7.6173C48.5467 7.6173 47.8998 11.7151 44.9874 13.6389C44.6085 13.8893 44.139 13.9267 43.687 13.8828C40.506 13.5742 37.5839 15.7054 38.4981 15.7054C39.0576 15.7054 39.7591 17.6927 40.0624 18.6426C40.1658 18.9664 40.3323 19.2955 40.6575 19.3944C40.8741 19.4604 41.1159 19.4737 41.3545 19.4576C42.1704 19.4024 43.19 19.5321 43.1762 20.3497C43.1399 22.4987 39.2333 25.1829 39.2333 25.999C39.2333 26.7343 41.4391 27.2245 39.9686 28.4499C39.5248 28.8937 39.081 29.2412 38.6954 29.5038C38.0197 29.9641 37.5678 30.7185 37.3469 31.5057C36.5539 34.3325 33.2323 34.3324 32.3708 34.3324C31.6356 34.3324 29.9199 30.9013 29.9199 30.166C29.9199 29.4308 30.6552 28.4504 30.6552 27.7151C30.6552 27.2621 30.0038 26.4368 29.5038 25.8701C29.1529 25.4723 28.9643 24.9615 28.8811 24.4376C28.4943 22.0023 26.2449 22.8133 23.7927 22.8133C21.3418 22.8133 21.3418 19.3817 21.3418 19.3817C21.3418 19.3817 21.3418 19.3817 21.3418 19.3817C21.3418 19.3817 21.3418 13.4995 25.5083 12.5191C27.6331 12.1441 28.6743 12.3428 29.1845 12.6276C29.6477 12.8862 29.8701 13.5019 30.35 13.7278C31.6064 14.3191 33.3437 13.8742 34.7985 13.538C35.7812 13.3109 36.6341 12.5036 36.689 11.4965C36.78 9.82921 36.7331 7.64246 35.8021 8.10796C34.0865 8.84323 32.6159 8.35257 32.3708 6.39185C32.1257 3.69587 39.7235 2.22545 39.7235 2.22545" fill="white"/>
<path d="M48.5467 7.6173C48.5467 7.6173 47.8998 11.7151 44.9874 13.6389C44.6085 13.8893 44.139 13.9267 43.687 13.8828C40.506 13.5742 37.5839 15.7054 38.4981 15.7054C39.0576 15.7054 39.7591 17.6927 40.0624 18.6426C40.1658 18.9664 40.3323 19.2955 40.6575 19.3944C40.8741 19.4604 41.1159 19.4737 41.3545 19.4576C42.1704 19.4024 43.19 19.5321 43.1762 20.3497C43.1399 22.4987 39.2333 25.1829 39.2333 25.999C39.2333 26.7343 41.4391 27.2245 39.9686 28.4499C39.5248 28.8937 39.081 29.2412 38.6954 29.5038C38.0197 29.9641 37.5678 30.7185 37.3469 31.5057C36.5539 34.3325 33.2323 34.3324 32.3708 34.3324C31.6356 34.3324 29.9199 30.9013 29.9199 30.166C29.9199 29.4308 30.6552 28.4504 30.6552 27.7151C30.6552 27.2621 30.0038 26.4368 29.5038 25.8701C29.1529 25.4723 28.9643 24.9615 28.8811 24.4376C28.4943 22.0023 26.2449 22.8133 23.7927 22.8133C21.3418 22.8133 21.3418 19.3817 21.3418 19.3817C21.3418 19.3817 21.3418 19.3817 21.3418 19.3817C21.3418 19.3817 21.3418 13.4995 25.5083 12.5191C27.6331 12.1441 28.6743 12.3428 29.1845 12.6276C29.6477 12.8862 29.8701 13.5019 30.35 13.7278C31.6064 14.3191 33.3437 13.8742 34.7985 13.538C35.7812 13.3109 36.6341 12.5036 36.689 11.4965C36.78 9.82921 36.7331 7.64246 35.8021 8.10796C34.0865 8.84323 32.6159 8.35257 32.3708 6.39185C32.1257 3.69587 39.7235 2.22545 39.7235 2.22545" stroke="url(#paint4_linear)" stroke-width="1.5" stroke-miterlimit="10" stroke-linecap="round" stroke-linejoin="round"/>
<defs>
<linearGradient id="paint0_linear" x1="5.90179" y1="35.0678" x2="5.90179" y2="54.675" gradientUnits="userSpaceOnUse">
<stop stop-color="#5296E0"/>
<stop offset="1" stop-color="#09A686"/>
</linearGradient>
<linearGradient id="paint1_linear" x1="34.0872" y1="42.1124" x2="34.0872" y2="57" gradientUnits="userSpaceOnUse">
<stop stop-color="#5296E0"/>
<stop offset="1" stop-color="#09A686"/>
</linearGradient>
<linearGradient id="paint2_linear" x1="25.1415" y1="37.5187" x2="25.1415" y2="47.3223" gradientUnits="userSpaceOnUse">
<stop stop-color="#5296E0"/>
<stop offset="1" stop-color="#09A686"/>
</linearGradient>
<linearGradient id="paint3_linear" x1="34.0872" y1="1" x2="34.0872" y2="37.5187" gradientUnits="userSpaceOnUse">
<stop stop-color="#5296E0"/>
<stop offset="1" stop-color="#09A686"/>
</linearGradient>
<linearGradient id="paint4_linear" x1="34.9443" y1="2.22545" x2="34.9443" y2="34.3324" gradientUnits="userSpaceOnUse">
<stop stop-color="#5296E0"/>
<stop offset="1" stop-color="#09A686"/>
</linearGradient>
</defs>
</svg>
