<svg width="46" height="57" viewBox="0 0 46 57" fill="none" xmlns="http://www.w3.org/2000/svg">
<path d="M34.9509 18.9185C34.9509 32.1217 17.9755 44.3817 17.9755 44.3817C17.9755 44.3817 1 32.1217 1 18.9185C1 9.11049 8.16741 1 17.9755 1C27.7835 1 34.9509 9.11049 34.9509 18.9185Z" fill="white" stroke="url(#paint0_linear)" stroke-width="2" stroke-miterlimit="10" stroke-linecap="round" stroke-linejoin="round"/>
<path d="M17.5 26C22.7467 26 27 21.7467 27 16.5C27 11.2533 22.7467 7 17.5 7C12.2533 7 8 11.2533 8 16.5C8 21.7467 12.2533 26 17.5 26Z" fill="white" stroke="url(#paint1_linear)" stroke-width="2" stroke-miterlimit="10" stroke-linecap="round" stroke-linejoin="round"/>
<path d="M29.5575 46.5463L23.3601 35.8121C22.929 35.0654 23.2051 34.0348 23.9518 33.6037C24.6986 33.1725 25.7292 33.4487 26.1603 34.1954L28.5854 38.3958L30.4522 37.3179C31.0122 36.9946 31.6011 37.1524 31.9245 37.7125L33.7913 36.6346C34.3513 36.3113 34.9403 36.4691 35.2636 37.0292L36.6637 36.2208C37.4105 35.7897 38.4411 36.0658 38.8722 36.8126L40.5428 39.7061C41.0278 40.5462 41.4733 41.5335 41.6244 42.4419L43.2028 48.6245L34.8021 53.4747C32.3242 52.4162 25.0732 48.2641 25.0732 48.2641C24.5237 47.9591 24.2004 47.399 24.3582 46.8101C24.516 46.2212 25.2088 45.6967 25.7978 45.8545L29.5575 46.5463Z" fill="white" stroke="url(#paint2_linear)" stroke-width="2" stroke-miterlimit="10" stroke-linecap="round" stroke-linejoin="round"/>
<path d="M31.9243 37.7124L33.0021 39.5793" stroke="url(#paint3_linear)" stroke-width="2" stroke-miterlimit="10" stroke-linecap="round" stroke-linejoin="round"/>
<path d="M28.3159 37.9291L30.2021 41.196" stroke="url(#paint4_linear)" stroke-width="2" stroke-miterlimit="10" stroke-linecap="round" stroke-linejoin="round"/>
<path d="M35.2637 37.0291L36.3415 38.896" stroke="url(#paint5_linear)" stroke-width="2" stroke-miterlimit="10" stroke-linecap="round" stroke-linejoin="round"/>
<defs>
<linearGradient id="paint0_linear" x1="17.9755" y1="1" x2="17.9755" y2="44.3817" gradientUnits="userSpaceOnUse">
<stop stop-color="#5296E0"/>
<stop offset="1" stop-color="#09A686"/>
</linearGradient>
<linearGradient id="paint1_linear" x1="17.5" y1="7" x2="17.5" y2="26" gradientUnits="userSpaceOnUse">
<stop stop-color="#5296E0"/>
<stop offset="1" stop-color="#09A686"/>
</linearGradient>
<linearGradient id="paint2_linear" x1="25.9989" y1="32.4218" x2="37.3158" y2="52.0234" gradientUnits="userSpaceOnUse">
<stop stop-color="#5296E0"/>
<stop offset="1" stop-color="#09A686"/>
</linearGradient>
<linearGradient id="paint3_linear" x1="32.3573" y1="37.4624" x2="33.4351" y2="39.3293" gradientUnits="userSpaceOnUse">
<stop stop-color="#5296E0"/>
<stop offset="1" stop-color="#09A686"/>
</linearGradient>
<linearGradient id="paint4_linear" x1="28.7489" y1="37.6791" x2="30.6351" y2="40.946" gradientUnits="userSpaceOnUse">
<stop stop-color="#5296E0"/>
<stop offset="1" stop-color="#09A686"/>
</linearGradient>
<linearGradient id="paint5_linear" x1="35.6967" y1="36.7791" x2="36.7745" y2="38.646" gradientUnits="userSpaceOnUse">
<stop stop-color="#5296E0"/>
<stop offset="1" stop-color="#09A686"/>
</linearGradient>
</defs>
</svg>
